# xmcd
# 
# Track frame offsets:
#     150
#     13917
#     24621
#     35715
#     45624
#     55968
#     65248
#     75880
#     87382
#     98651
#     109016
#     120716
#     133027
#     145034
#     153948
#     164021
#     175083
#     189582
#     200483
#     211573
#     221895
#     233594
#     244282
#     257331
#     268649
# 
# Disc length: 3751
# 
# Revision: 1
# Processed by: cddbd v1.5.2PL0 Copyright (c) Steve Scherf et al.
# Submitted via: fre:ac v1.0.31
# 
DISCID=600ea519
DTITLE=Patsy Cline - The Complete Releases 1955-62 Disc 1
DYEAR=2017
DGENRE=Country
TTITLE0=A Church A Courtroom And Then Goodbye
TTITLE1=Honky Tonk Merry Go Round
TTITLE2=Hidin' Out
TTITLE3=Turn The Cards Slowly
TTITLE4=I Love You Honey
TTITLE5=Come On In (And Make Yourself At Home)
TTITLE6=Stop Look And Listen
TTITLE7=I've Loved And Lost Again
TTITLE8=Dear God
TTITLE9=He Will Do For You
TTITLE10=Walkin' After Midnight
TTITLE11=A Poor Man's Roses (Or A Rich Man's Gold)
TTITLE12=Today, Tomorrow And Forever
TTITLE13=Try Again
TTITLE14=Three Cigarettes In An Ashtray
TTITLE15=A Stranger In Your Arms
TTITLE16=Then You'll Know
TTITLE17=I Don't Wanta
TTITLE18=Stop The World (And Let Me Off)
TTITLE19=Walking Dream
TTITLE20=Never No More
TTITLE21=I Can See An Angel
TTITLE22=If I Could See The World (Through The Eyes of A Child)
TTITLE23=Just Out Of Reach
TTITLE24=Yes, I Understand
EXTD=
EXTT0=
EXTT1=
EXTT2=
EXTT3=
EXTT4=
EXTT5=
EXTT6=
EXTT7=
EXTT8=
EXTT9=
EXTT10=
EXTT11=
EXTT12=
EXTT13=
EXTT14=
EXTT15=
EXTT16=
EXTT17=
EXTT18=
EXTT19=
EXTT20=
EXTT21=
EXTT22=
EXTT23=
EXTT24=
PLAYORDER=
